<svg xmlns="http://www.w3.org/2000/svg" shape-rendering="geometricPrecision" text-rendering="geometricPrecision" image-rendering="optimizeQuality" fill-rule="evenodd" clip-rule="evenodd" viewBox="0 0 514.708 87.291"><defs><linearGradient id="prefix__a" gradientUnits="userSpaceOnUse" x1="45.819" y1="3.513" x2="45.82" y2="64.846"><stop offset="0" stop-color="#FFD433"/><stop offset=".471" stop-color="#FABE2B"/><stop offset="1" stop-color="#F4A722"/></linearGradient><linearGradient id="prefix__b" gradientUnits="userSpaceOnUse" x1="151.799" y1="3.513" x2="151.801" y2="64.846"><stop offset="0" stop-color="#FFD433"/><stop offset=".471" stop-color="#FABE2B"/><stop offset="1" stop-color="#F4A722"/></linearGradient><linearGradient id="prefix__c" gradientUnits="userSpaceOnUse" x1="257.779" y1="3.513" x2="257.781" y2="64.846"><stop offset="0" stop-color="#FFD433"/><stop offset=".471" stop-color="#FABE2B"/><stop offset="1" stop-color="#F4A722"/></linearGradient><linearGradient id="prefix__d" gradientUnits="userSpaceOnUse" x1="469.739" y1="3.513" x2="469.742" y2="80.584"><stop offset="0" stop-color="#CCC"/><stop offset=".471" stop-color="#B3B3B3"/><stop offset="1" stop-color="#999"/></linearGradient><linearGradient id="prefix__e" gradientUnits="userSpaceOnUse" x1="363.76" y1="3.513" x2="363.762" y2="79.761"><stop offset="0" stop-color="#CCC"/><stop offset=".471" stop-color="#B3B3B3"/><stop offset="1" stop-color="#999"/></linearGradient></defs><path fill="#F0B100" fill-rule="nonzero" d="M69.83 55.773l4.91 28.788a2.37 2.37 0 01-.247 1.491 2.334 2.334 0 01-3.157.96L45.518 73.203 19.802 86.957a2.337 2.337 0 01-3.507-2.378l4.744-28.795L.741 35.09a2.339 2.339 0 011.268-4.021l28.352-4.059L43.426 1.296a2.336 2.336 0 014.178-.011l12.95 25.727 28.227 4.057c.473.07.93.282 1.299.641.925.899.945 2.378.045 3.303L69.83 55.773z"/><path fill="url(#prefix__a)" d="M72.434 84.954l-5.11-29.959 21.127-21.611-29.435-4.231L45.518 2.337 31.893 29.153 2.338 33.384l21.199 21.611-4.936 29.959 26.917-14.397z"/><path fill="#F0B100" fill-rule="nonzero" d="M175.81 55.773l4.911 28.788a2.378 2.378 0 01-.248 1.491 2.334 2.334 0 01-3.157.96l-25.818-13.809-25.716 13.754a2.337 2.337 0 01-3.507-2.378l4.744-28.795-20.298-20.694a2.34 2.34 0 011.268-4.021l28.352-4.059 13.065-25.714a2.336 2.336 0 014.178-.011l12.951 25.727 28.226 4.057c.473.07.93.282 1.299.641.925.899.945 2.378.046 3.303l-20.296 20.76z"/><path fill="url(#prefix__b)" d="M178.415 84.954l-5.111-29.959 21.128-21.611-29.436-4.231-13.498-26.816-13.625 26.816-29.554 4.231 21.198 21.611-4.936 29.959 26.917-14.397z"/><path fill="#F0B100" fill-rule="nonzero" d="M281.79 55.773l4.911 28.788a2.37 2.37 0 01-.247 1.491 2.335 2.335 0 01-3.158.96l-25.818-13.809-25.715 13.754a2.337 2.337 0 01-3.508-2.378l4.744-28.795-20.298-20.694a2.34 2.34 0 011.268-4.021l28.352-4.059 13.065-25.714a2.337 2.337 0 014.179-.011l12.95 25.727 28.226 4.057a2.337 2.337 0 011.345 3.944l-20.296 20.76z"/><path fill="url(#prefix__c)" d="M284.395 84.954l-5.11-29.959 21.127-21.611-29.436-4.231-13.498-26.816-13.624 26.816-29.555 4.231 21.198 21.611-4.936 29.959 26.917-14.397z"/><path fill="#999" fill-rule="nonzero" d="M493.751 55.773l4.91 28.788a2.37 2.37 0 01-.247 1.491 2.334 2.334 0 01-3.157.96l-25.818-13.809-25.716 13.754a2.338 2.338 0 01-3.508-2.378l4.745-28.795-20.298-20.694a2.339 2.339 0 011.268-4.021l28.352-4.059 13.065-25.714a2.336 2.336 0 014.178-.011l12.951 25.727 28.226 4.057c.473.07.93.282 1.299.641.925.899.945 2.378.045 3.303l-20.295 20.76z"/><path fill="url(#prefix__d)" d="M496.355 84.954l-5.11-29.959 21.127-21.611-29.435-4.231-13.498-26.816-13.625 26.816-29.555 4.231 21.199 21.611-4.936 29.959 26.917-14.397z"/><path fill="#999" fill-rule="nonzero" d="M387.771 55.773l4.911 28.788a2.371 2.371 0 01-.248 1.491 2.333 2.333 0 01-3.156.96l-25.819-13.809-25.715 13.754a2.337 2.337 0 01-3.508-2.378l4.744-28.795-20.298-20.694a2.34 2.34 0 011.268-4.021l28.352-4.059 13.065-25.714a2.337 2.337 0 014.179-.011l12.95 25.727 28.226 4.057c.473.07.93.282 1.299.641.925.899.945 2.378.046 3.303l-20.296 20.76z"/><path fill="url(#prefix__e)" d="M390.376 84.954l-5.11-29.959 21.127-21.611-29.436-4.231-13.498-26.816-13.624 26.816-29.555 4.231 21.198 21.611-4.936 29.959 26.917-14.397z"/></svg>